<svg xmlns="http://www.w3.org/2000/svg" viewBox="0 0 46 57" width="46" height="57">
	<style>
		tspan { white-space:pre }
		.shp0 { fill: #ffff00 } 
	</style>
	<path id="Shape 9 copy" class="shp0" d="M12.51 55.65C13.98 48.38 14.9 41.07 15.29 33.66C15.33 32.8 14.01 32.23 13.47 32.96C12.63 34.09 11.8 35.22 10.97 36.35C9.3 25.2 8.31 13.99 7.25 2.76C7.18 1.99 6.01 2 6.03 2.79C6.21 14.72 7.56 26.62 9.19 38.43C6.82 37.45 4.44 36.47 2.07 35.49C1.14 35.1 0.25 35.96 0.73 36.9C3.96 43.27 7.3 49.6 10.6 55.94C11.01 56.74 12.33 56.5 12.51 55.65ZM10.04 39.98C10.39 40.13 10.79 40.1 11.07 39.71C11.69 38.88 12.31 38.04 12.93 37.21C12.54 42.24 11.91 47.24 11.01 52.21C8.6 47.56 6.18 42.92 3.73 38.3C5.43 38.98 7.13 39.66 8.83 40.34C9.33 40.54 9.78 40.32 10.04 39.98ZM42.51 53.65C43.98 46.38 44.9 39.07 45.29 31.66C45.33 30.8 44.01 30.23 43.47 30.96C42.63 32.09 41.8 33.22 40.97 34.35C39.3 23.2 38.31 11.99 37.25 0.76C37.18 -0.01 36.01 0 36.03 0.79C36.21 12.72 37.56 24.62 39.19 36.43C36.82 35.45 34.44 34.47 32.07 33.49C31.14 33.1 30.25 33.96 30.73 34.89C33.96 41.27 37.3 47.6 40.6 53.94C41.01 54.74 42.33 54.5 42.51 53.65ZM40.04 37.98C40.39 38.13 40.79 38.1 41.07 37.71C41.69 36.88 42.31 36.04 42.93 35.21C42.54 40.24 41.91 45.24 41.01 50.21C38.6 45.56 36.18 40.92 33.73 36.3C35.43 36.98 37.13 37.66 38.83 38.34C39.33 38.54 39.78 38.32 40.04 37.98Z" />
</svg>