<svg xmlns="http://www.w3.org/2000/svg" viewBox="0 0 76 55" width="76" height="55">
	<style>
		tspan { white-space:pre }
		.shp0 { fill: #ffff00 } 
	</style>
	<path id="Shape 9 copy" class="shp0" d="M12.51 53.65C13.98 46.38 14.91 39.07 15.29 31.66C15.33 30.8 14.01 30.23 13.47 30.96C12.63 32.09 11.8 33.22 10.97 34.35C9.3 23.2 8.31 11.99 7.25 0.76C7.18 -0.01 6.01 0 6.03 0.79C6.21 12.72 7.56 24.62 9.19 36.43C6.82 35.45 4.44 34.47 2.07 33.49C1.14 33.1 0.25 33.96 0.73 34.9C3.96 41.27 7.3 47.6 10.6 53.94C11.01 54.74 12.33 54.5 12.51 53.65ZM10.04 37.98C10.39 38.13 10.79 38.1 11.07 37.71C11.69 36.88 12.31 36.04 12.93 35.21C12.54 40.24 11.91 45.24 11.01 50.21C8.6 45.56 6.18 40.92 3.73 36.3C5.43 36.98 7.13 37.66 8.83 38.34C9.33 38.54 9.78 38.32 10.04 37.98ZM42.51 53.65C43.98 46.38 44.91 39.07 45.29 31.66C45.33 30.8 44.01 30.23 43.47 30.96C42.63 32.09 41.8 33.22 40.97 34.35C39.3 23.2 38.31 11.99 37.25 0.76C37.18 -0.01 36.01 0 36.03 0.79C36.21 12.72 37.56 24.62 39.19 36.43C36.82 35.45 34.44 34.47 32.07 33.49C31.14 33.1 30.25 33.96 30.73 34.9C33.96 41.27 37.3 47.6 40.6 53.94C41.01 54.74 42.33 54.5 42.51 53.65ZM40.04 37.98C40.39 38.13 40.79 38.1 41.07 37.71C41.69 36.88 42.31 36.04 42.93 35.21C42.54 40.24 41.91 45.24 41.01 50.21C38.6 45.56 36.18 40.92 33.73 36.3C35.43 36.98 37.13 37.66 38.83 38.34C39.33 38.54 39.78 38.32 40.04 37.98ZM72.51 53.65C73.98 46.38 74.91 39.07 75.29 31.66C75.33 30.8 74.01 30.23 73.47 30.96C72.63 32.09 71.8 33.22 70.97 34.35C69.3 23.2 68.31 11.99 67.25 0.76C67.18 -0.01 66.01 0 66.03 0.79C66.21 12.72 67.56 24.62 69.19 36.43C66.82 35.45 64.44 34.47 62.07 33.49C61.14 33.1 60.25 33.96 60.73 34.9C63.96 41.27 67.3 47.6 70.6 53.94C71.01 54.74 72.33 54.5 72.51 53.65ZM70.04 37.98C70.39 38.13 70.79 38.1 71.07 37.71C71.69 36.88 72.31 36.04 72.93 35.21C72.54 40.24 71.91 45.24 71.01 50.21C68.6 45.56 66.18 40.92 63.73 36.3C65.43 36.98 67.13 37.66 68.83 38.34C69.33 38.54 69.78 38.32 70.04 37.98Z" />
</svg>