<svg xmlns="http://www.w3.org/2000/svg" viewBox="0 0 127 192" width="127" height="192">
	<style>
		tspan { white-space:pre }
		.shp0 { fill: #ffff00 } 
	</style>
	<path id="Shape 6" class="shp0" d="M107.85 57.36C102.67 52.75 96.66 49.06 90.06 46.39C90.94 41.56 93.49 35.51 97.25 29.5C99.51 25.88 101.8 22.94 103.86 20.71C105.08 21.22 106.41 21.5 107.8 21.5C113.46 21.5 118.06 16.9 118.06 11.25C118.06 5.6 113.46 1 107.8 1C102.15 1 97.55 5.6 97.55 11.25C97.55 11.69 97.58 12.13 97.64 12.56C93.35 16.88 89.95 22.03 88.65 24.12C86.5 27.55 82.11 35.24 80.34 43.3C74.92 42 69.22 41.34 63.38 41.34C57.54 41.34 51.85 42 46.42 43.3C44.66 35.24 40.27 27.55 38.12 24.12C36.82 22.03 33.41 16.88 29.13 12.56C29.18 12.13 29.21 11.69 29.21 11.25C29.21 5.6 24.61 1 18.96 1C13.3 1 8.7 5.6 8.7 11.25C8.7 16.9 13.3 21.5 18.96 21.5C20.36 21.5 21.69 21.22 22.9 20.71C24.96 22.94 27.25 25.88 29.52 29.5C33.28 35.51 35.83 41.56 36.7 46.39C30.11 49.06 24.09 52.75 18.91 57.36C6.84 68.12 0.19 83.24 0.19 99.94C0.19 117.08 7.15 139.88 17.92 158.05C30.9 179.94 47.05 192 63.38 192C79.71 192 95.86 179.94 108.84 158.05C119.61 139.88 126.57 117.08 126.57 99.94C126.57 83.24 119.92 68.12 107.85 57.36ZM100.11 152.88C89.19 171.29 75.8 181.85 63.38 181.85C50.96 181.85 37.57 171.29 26.66 152.88C16.75 136.17 10.34 115.38 10.34 99.94C10.34 78.54 23.3 61.61 43.07 54.77C43.51 54.69 43.92 54.55 44.3 54.36C50.15 52.49 56.56 51.48 63.38 51.48C70.21 51.48 76.62 52.49 82.46 54.36C82.85 54.55 83.26 54.69 83.69 54.77C103.46 61.61 116.42 78.54 116.42 99.94C116.42 115.38 110.02 136.17 100.11 152.88ZM107.16 92.7C106.79 90.59 105.15 88.94 103.04 88.58C102.92 88.56 99.95 88.04 95.91 88.04C89.61 88.04 80.84 89.28 74.92 95.21C65.18 104.93 68.15 122.57 68.28 123.32C68.65 125.42 70.3 127.07 72.4 127.44C72.53 127.46 75.5 127.97 79.54 127.97L79.54 127.97C85.84 127.97 94.61 126.73 100.53 120.81C110.26 111.08 107.29 93.44 107.16 92.7ZM93.35 113.63C89.7 117.28 83.13 117.83 79.54 117.83L79.54 117.83C78.96 117.83 78.42 117.82 77.92 117.8C77.73 113.04 78.35 106.12 82.09 102.38C85.74 98.73 92.32 98.19 95.91 98.19C96.48 98.19 97.02 98.2 97.53 98.22C97.72 102.97 97.09 109.9 93.35 113.63ZM51.85 95.21C45.92 89.28 37.16 88.04 30.85 88.04C26.82 88.04 23.85 88.56 23.72 88.58C21.62 88.94 19.97 90.59 19.6 92.7C19.47 93.44 16.5 111.08 26.23 120.81C32.16 126.73 40.92 127.97 47.23 127.97C51.26 127.97 54.24 127.46 54.36 127.44C56.46 127.07 58.11 125.42 58.48 123.32C58.61 122.57 61.58 104.93 51.85 95.21ZM48.85 117.8C48.34 117.82 47.8 117.83 47.23 117.83C43.64 117.83 37.06 117.28 33.41 113.63C29.67 109.89 29.05 102.97 29.23 98.22C29.74 98.2 30.28 98.19 30.85 98.19C34.45 98.19 41.02 98.73 44.67 102.38C48.42 106.12 49.04 113.05 48.85 117.8ZM80.26 159.66L46.51 159.66C43.7 159.66 41.43 157.39 41.43 154.59C41.43 151.79 43.7 149.52 46.51 149.52L80.26 149.52C83.06 149.52 85.33 151.79 85.33 154.59C85.33 157.39 83.06 159.66 80.26 159.66Z" />
</svg>