<svg xmlns="http://www.w3.org/2000/svg" viewBox="0 0 53 26" width="53" height="26">
	<style>
		tspan { white-space:pre }
		.shp0 { fill: #ffff00 } 
	</style>
	<path id="Shape 4 copy 3" class="shp0" d="M52.19 10.45C43.93 7.97 35.93 4.85 28.17 1.08C27.43 0.72 26.23 1.42 26.65 2.34C27.45 4.11 28.12 5.87 28.68 7.71C24.07 7.04 19.46 6.37 14.86 5.7C12.27 5.32 9.68 4.95 7.09 4.57C5.89 4.4 3.53 3.52 2.31 3.94C0.91 4.43 0.89 4.69 0.53 6.16C-0.27 9.32 -0.12 15.09 0.71 18.25C0.8 18.6 1.13 18.9 1.47 18.98C5.73 19.87 10.95 18.65 15.26 18.34C20.24 17.98 25.25 17.68 30.21 17.02C28.96 19.18 27.7 21.34 26.45 23.5C25.87 24.51 27.07 25.35 27.95 24.92C31.1 23.37 34.24 21.79 37.37 20.21C37.68 20.36 38.09 20.14 38.21 19.79C43 17.37 47.76 14.91 52.5 12.4C53.36 11.94 53 10.7 52.19 10.45ZM2.56 12.35C2.58 10.97 2.48 9.69 2.72 8.68C4.01 11.42 5.38 14.17 6.91 16.78C4.14 16.82 2.51 16.15 2.56 12.35ZM8.52 16.7C8.39 16.71 8.27 16.72 8.14 16.72C6.57 13.67 4.83 10.68 3.14 7.68C3.57 7.06 4.32 6.64 5.61 6.51C6.19 6.45 6.82 6.47 7.46 6.54C7.45 6.59 7.46 6.64 7.48 6.7C8.73 10.06 10.29 13.35 12.11 16.45C10.91 16.53 9.72 16.62 8.52 16.7ZM16.14 16.17C15.19 16.23 14.25 16.3 13.3 16.37C11.38 13.23 9.68 10.05 8.24 6.64C9.99 6.9 11.84 7.42 13.39 7.64C13.48 7.65 13.57 7.67 13.66 7.68C13.67 7.7 13.67 7.72 13.68 7.73C15.62 10.42 17.42 13.09 19.03 15.96C18.07 16.03 17.11 16.1 16.14 16.17ZM20.21 15.88C18.67 13.01 16.77 10.2 14.56 7.81C17.56 8.25 20.56 8.68 23.57 9.12C23.54 9.21 23.54 9.31 23.59 9.42C24.55 11.43 25.58 13.55 26.75 15.51C24.57 15.6 22.39 15.73 20.21 15.88ZM30.09 21.47C30.85 20.16 31.61 18.86 32.36 17.55C32.67 17.02 32.48 16.53 32.11 16.25C32.18 15.85 31.96 15.41 31.41 15.41C30.29 15.4 29.18 15.43 28.06 15.46C26.99 13.32 25.68 11.23 24.39 9.24C26.23 9.51 28.07 9.77 29.9 10.04C30.71 10.16 31.39 9.52 31.17 8.68C30.84 7.44 30.45 6.25 30.02 5.07C32.02 9.53 34.15 13.95 36.31 18.34C34.24 19.39 32.17 20.44 30.09 21.47ZM37.44 17.78C35.25 13.35 33.02 8.93 30.67 4.6C32.94 5.63 35.23 6.6 37.54 7.53C37.54 7.59 37.55 7.64 37.58 7.69C38.84 10.38 40.44 12.91 41.85 15.52C40.38 16.28 38.91 17.03 37.44 17.78ZM42.89 14.99C41.43 12.66 40.1 10.22 38.55 7.95C42.04 9.33 45.56 10.6 49.15 11.74C47.07 12.84 44.98 13.92 42.89 14.99Z" />
</svg>