<svg xmlns="http://www.w3.org/2000/svg" viewBox="0 0 66 49" width="66" height="49">
	<style>
		tspan { white-space:pre }
		.shp0 { fill: #000000 } 
	</style>
	<path id="Shape 3" class="shp0" d="M64.65 25.13C56.94 16.77 48.82 8.83 40.26 1.32C39.42 0.59 38.33 1.2 38.23 2.19C37.79 6.31 37.72 10.29 38.12 14.38C27.04 13.26 15.96 12.15 4.87 11.03C3.81 10.93 3.36 12.42 4.06 13.07C7.21 15.96 14.56 21.6 13.63 25.88C12.75 29.91 3.99 33.76 0.55 36.08C-0.39 36.71 -0.05 38.34 1.2 38.28C13.5 37.7 25.89 37.45 38.16 36.29C38.15 36.35 38.13 36.39 38.13 36.46C38.15 39.86 37.84 43.14 37.16 46.49C36.97 47.42 38.05 48.46 38.96 47.8C47.93 41.28 56.51 34.28 64.69 26.81C65.19 26.35 65.07 25.58 64.65 25.13ZM5.38 35.69C8.04 33.9 10.71 32.11 13.38 30.3C14.18 32.01 15.26 33.63 16.47 35.1C12.77 35.29 9.07 35.5 5.38 35.69ZM18.24 35C16.78 33.29 15.58 31.5 14.42 29.6C14.43 29.6 14.43 29.6 14.43 29.59C15.61 28.8 17.56 27.89 17.77 26.26C18.03 24.26 14.84 21.19 13.81 19.91C12.07 17.74 10.18 15.69 8.21 13.73C9.92 13.91 11.62 14.08 13.33 14.25C17.85 20.97 22.15 27.77 26.41 34.64C23.69 34.75 20.97 34.86 18.24 35ZM27.9 34.59C27.89 34.57 27.89 34.54 27.88 34.52C24.03 27.55 19.52 20.78 14.71 14.39C17.69 14.69 20.67 14.99 23.66 15.29C23.66 15.34 23.68 15.39 23.71 15.45C27.61 22.04 32.12 28.32 36.75 34.42C33.8 34.44 30.85 34.49 27.9 34.59ZM40.02 44.02C40.38 41.51 40.56 39.01 40.55 36.41C40.54 36.19 40.49 36.02 40.4 35.86C40.87 35.37 40.67 34.41 39.79 34.41C39.32 34.4 38.85 34.41 38.38 34.41C38.4 34.27 38.37 34.11 38.25 33.95C33.56 27.85 29.13 21.58 24.58 15.38C27.98 15.72 31.38 16.06 34.78 16.41C39.32 23.48 43.7 30.63 48.11 37.78C45.45 39.9 42.76 41.99 40.02 44.02ZM36 16.53C36.85 16.61 37.7 16.7 38.55 16.78C39.28 16.86 39.64 16.36 39.66 15.8C39.76 15.68 39.83 15.52 39.83 15.32C39.85 13.55 39.9 11.79 39.98 10.04C45.16 17.25 50.44 24.39 55.57 31.63C53.48 33.41 51.37 35.16 49.23 36.88C45.26 29.86 40.75 23.05 36 16.53ZM56.82 30.55C51.43 23.05 45.92 15.59 40.07 8.44C40.15 7.17 40.24 5.89 40.36 4.62C47.93 11.4 55.19 18.48 62.1 25.91C60.37 27.48 58.6 29.02 56.82 30.55Z" />
</svg>