<svg xmlns="http://www.w3.org/2000/svg" viewBox="0 0 16 55" width="16" height="55">
	<style>
		tspan { white-space:pre }
		.shp0 { fill: #ffff00 } 
	</style>
	<path id="Shape 9" class="shp0" d="M12.51 53.65C13.98 46.38 14.91 39.07 15.29 31.66C15.33 30.8 14.01 30.23 13.47 30.96C12.63 32.09 11.8 33.22 10.97 34.35C9.3 23.2 8.31 11.99 7.25 0.76C7.18 -0.01 6.01 0 6.03 0.79C6.21 12.72 7.56 24.62 9.19 36.43C6.82 35.45 4.44 34.47 2.07 33.49C1.14 33.1 0.25 33.96 0.73 34.9C3.96 41.27 7.3 47.6 10.6 53.94C11.01 54.74 12.33 54.5 12.51 53.65ZM10.04 37.98C10.39 38.13 10.79 38.1 11.07 37.71C11.69 36.88 12.31 36.04 12.93 35.21C12.54 40.24 11.91 45.24 11.01 50.21C8.6 45.56 6.18 40.92 3.73 36.3C5.43 36.98 7.13 37.66 8.83 38.34C9.33 38.54 9.78 38.32 10.04 37.98Z" />
</svg>