<svg xmlns="http://www.w3.org/2000/svg" viewBox="0 0 192 145" width="192" height="145">
	<style>
		tspan { white-space:pre }
		.shp0 { fill: #ffff00 } 
	</style>
	<path id="Shape 7" class="shp0" d="M188.64 30.71C184.99 22.58 177.29 16.54 166.39 13.25C157 10.42 145.15 9.61 132.02 10.89C121.12 4.42 108.65 0.97 95.65 0.97C76.56 0.97 58.61 8.41 45.11 21.92C34.9 32.13 28.16 44.89 25.48 58.76C15.8 67.74 8.52 77.15 4.4 86.06C-0.38 96.4 -0.98 106.16 2.67 114.29C8.45 127.17 23.89 134.42 46.14 134.7C46.6 134.71 47.06 134.71 47.52 134.71C51.33 134.71 55.26 134.51 59.3 134.12C70.19 140.58 82.66 144.03 95.65 144.03C114.75 144.03 132.7 136.59 146.2 123.08C156.4 112.87 163.14 100.11 165.82 86.24C169.16 83.15 172.23 79.99 175 76.79C189.57 59.95 194.41 43.58 188.64 30.71ZM89.17 11.45C89.55 12.71 89.75 14.02 89.75 15.36C89.75 22.79 83.71 28.84 76.28 28.84C70.59 28.84 65.61 25.25 63.67 20.12C71.25 15.47 79.91 12.42 89.17 11.45ZM46.27 124.57C28.45 124.34 15.92 119.08 11.91 110.14C9.46 104.69 10.03 98.02 13.6 90.32C15.94 85.24 19.54 79.92 24.2 74.57C24.72 92.9 32.09 110.06 45.11 123.08C45.61 123.59 46.13 124.08 46.64 124.57C46.52 124.57 46.4 124.57 46.27 124.57ZM95.65 133.89C89.36 133.89 83.29 132.94 77.57 131.17C90.15 128.39 103.24 124.02 116.17 118.21C129.09 112.4 141.05 105.52 151.48 97.96C141.79 119.14 120.41 133.89 95.65 133.89ZM156.4 81.11C144.45 91.62 129.15 101.26 112.02 108.96C94.9 116.66 77.55 121.69 61.76 123.65C45.22 112.64 34.3 93.82 34.3 72.5C34.3 54.07 42.46 37.51 55.35 26.25C59.32 33.85 67.29 38.97 76.28 38.97C89.29 38.97 99.88 28.38 99.88 15.36C99.88 13.97 99.75 12.58 99.51 11.23C131.55 13.23 157.01 39.94 157.01 72.5C157.01 75.42 156.8 78.29 156.4 81.11ZM167.35 70.15C167.27 70.24 167.18 70.33 167.1 70.42C166.59 52.1 159.21 34.94 146.2 21.92C145.69 21.41 145.18 20.92 144.66 20.43C151.75 20.49 158.12 21.34 163.47 22.95C171.59 25.41 176.95 29.41 179.4 34.86C183.41 43.8 179.02 56.66 167.35 70.15ZM76.28 55.88C66 55.88 57.64 64.25 57.64 74.54C57.64 84.82 66 93.19 76.28 93.19C86.55 93.19 94.92 84.82 94.92 74.54C94.92 64.25 86.55 55.88 76.28 55.88ZM76.28 83.05C71.58 83.05 67.77 79.23 67.77 74.54C67.77 69.84 71.58 66.02 76.28 66.02C80.97 66.02 84.79 69.84 84.79 74.54C84.79 79.23 80.97 83.05 76.28 83.05ZM130.58 56.94C122 56.94 115.03 63.92 115.03 72.5C115.03 81.08 122 88.06 130.58 88.06C139.15 88.06 146.13 81.08 146.13 72.5C146.13 63.92 139.15 56.94 130.58 56.94ZM130.58 77.92C127.59 77.92 125.16 75.49 125.16 72.5C125.16 69.51 127.59 67.08 130.58 67.08C133.57 67.08 136 69.51 136 72.5C136 75.49 133.57 77.92 130.58 77.92Z" />
</svg>