<svg xmlns="http://www.w3.org/2000/svg" viewBox="0 0 162 55" width="162" height="55">
	<style>
		tspan { white-space:pre }
		.shp0 { fill: #e02c32 } 
	</style>
	<path id="Shape 1" class="shp0" d="M84.04 53.8C86.55 45.49 89.72 37.44 93.54 29.62C93.91 28.88 93.2 27.67 92.27 28.08C90.47 28.89 88.68 29.56 86.82 30.13C87.5 25.49 88.18 20.85 88.86 16.21C89.24 13.6 89.62 10.99 90 8.38C90.18 7.18 91.07 4.8 90.64 3.57C90.14 2.16 89.88 2.15 88.39 1.78C85.19 0.98 79.33 1.13 76.12 1.96C75.77 2.05 75.46 2.38 75.39 2.73C74.48 7.01 75.72 12.27 76.03 16.61C76.4 21.63 76.71 26.67 77.37 31.67C75.18 30.41 72.99 29.15 70.8 27.89C69.78 27.3 68.93 28.51 69.36 29.4C70.93 32.57 72.53 35.73 74.14 38.88C73.99 39.2 74.21 39.61 74.57 39.73C77.02 44.55 79.51 49.35 82.06 54.12C82.52 54.99 83.79 54.62 84.04 53.8ZM82.11 3.83C83.51 3.85 84.81 3.75 85.83 3.99C83.05 5.29 80.26 6.67 77.62 8.21C77.58 5.42 78.26 3.78 82.11 3.83ZM77.7 9.82C77.69 9.7 77.68 9.57 77.67 9.45C80.77 7.86 83.8 6.11 86.84 4.41C87.48 4.84 87.9 5.6 88.03 6.9C88.09 7.48 88.07 8.11 88.01 8.76C87.96 8.76 87.9 8.76 87.84 8.78C84.43 10.04 81.09 11.61 77.95 13.45C77.87 12.24 77.78 11.03 77.7 9.82ZM78.24 17.51C78.17 16.55 78.1 15.59 78.04 14.64C81.22 12.7 84.44 11 87.9 9.54C87.63 11.31 87.12 13.17 86.89 14.73C86.87 14.82 86.86 14.91 86.85 15C86.83 15.01 86.81 15.01 86.79 15.03C84.07 16.98 81.36 18.79 78.44 20.41C78.38 19.44 78.3 18.47 78.24 17.51ZM78.53 21.6C81.44 20.05 84.29 18.13 86.72 15.91C86.27 18.93 85.83 21.96 85.39 24.98C85.29 24.96 85.19 24.96 85.08 25.01C83.05 25.98 80.89 27.01 78.91 28.19C78.82 25.99 78.68 23.79 78.53 21.6ZM72.86 31.55C74.19 32.32 75.51 33.08 76.84 33.84C77.37 34.15 77.87 33.95 78.16 33.58C78.56 33.66 79.01 33.43 79.01 32.88C79.01 31.75 78.99 30.63 78.96 29.51C81.13 28.43 83.25 27.11 85.27 25.81C84.99 27.66 84.72 29.51 84.45 31.36C84.33 32.17 84.98 32.86 85.83 32.64C87.09 32.31 88.3 31.91 89.5 31.48C84.97 33.49 80.49 35.64 76.03 37.82C74.97 35.73 73.91 33.65 72.86 31.55ZM76.61 38.95C81.09 36.74 85.58 34.5 89.98 32.13C88.92 34.42 87.94 36.73 87 39.05C86.94 39.05 86.89 39.06 86.83 39.09C84.11 40.36 81.54 41.97 78.89 43.4C78.13 41.92 77.36 40.43 76.61 38.95ZM79.43 44.44C81.79 42.97 84.27 41.63 86.58 40.08C85.18 43.58 83.88 47.13 82.73 50.74C81.62 48.65 80.52 46.55 79.43 44.44Z" />
	<path id="Shape 2" class="shp0" d="M5.38 54.76C7.62 51.4 10.19 48.34 13.12 45.55C13.38 45.3 13.31 44.76 12.91 44.68C12.05 44.51 10.47 44.54 9.95 43.78C9.58 43.23 10.41 40.87 10.57 40.12C10.94 38.37 11.43 36.64 12.01 34.95C13.28 31.23 15.05 27.7 17.21 24.43C21.68 17.69 27.76 12.5 34.8 8.62C35.08 8.46 35.01 8.14 34.81 8C34.83 7.87 34.79 7.74 34.67 7.61C32.58 5.46 30.49 3.31 28.41 1.16C28.26 1.01 27.97 0.93 27.79 1.06C18.15 7.89 11.09 17.81 7.61 28.95C7.53 28.95 7.45 28.95 7.37 28.95C6.96 28.95 6.94 29.58 7.36 29.6C7.37 29.6 7.39 29.6 7.41 29.6C6.13 33.87 5.37 38.32 5.2 42.84C4.06 42.3 2.92 41.76 1.78 41.23C1.4 41.05 0.88 41.31 1.01 41.78L3.44 50.87C3.26 51.03 3.29 51.38 3.58 51.39L4.44 54.61C4.56 55.05 5.13 55.14 5.38 54.76ZM28.28 2.5C29.02 2.7 30.24 4.52 30.79 5.09C31.18 5.49 31.57 5.89 31.95 6.29C29.22 5.9 26.2 5.6 23.43 5.77C24.77 4.41 26.98 2.16 28.28 2.5ZM22.7 6.51C22.77 6.45 22.85 6.37 22.94 6.28C22.96 6.29 22.97 6.29 23 6.3C25.97 6.64 29.13 6.61 32.13 6.67C32.19 6.67 32.24 6.65 32.27 6.61C32.8 7.16 33.34 7.71 33.87 8.26C32.3 9.01 30.78 9.87 29.33 10.82C25.52 11.1 21.74 11.55 17.91 11.7C19.39 9.86 20.98 8.13 22.7 6.51ZM17.45 12.28C17.5 12.33 17.56 12.35 17.65 12.35C21.12 12.29 24.8 12.12 28.3 11.51C26.46 12.79 24.73 14.22 23.1 15.77C20.47 15.61 17.77 15.7 15.13 15.71C15.04 15.72 14.98 15.75 14.92 15.8C15.72 14.59 16.56 13.42 17.45 12.28ZM14.05 17.17C14.3 16.75 14.56 16.34 14.83 15.94C14.77 16.12 14.86 16.37 15.11 16.36C17.63 16.32 20.2 16.33 22.71 16.15C21.22 17.61 19.83 19.17 18.55 20.82C16.45 20.67 14.16 20.55 12.05 20.72C12.67 19.51 13.33 18.33 14.05 17.17ZM11.74 21.33C13.84 21.51 16.12 21.38 18.24 21.22C17.39 22.33 16.59 23.48 15.85 24.65C15.84 24.66 15.83 24.66 15.82 24.66C15.06 25.16 13.74 24.89 12.87 24.87C11.97 24.84 11.07 24.81 10.17 24.81C10.65 23.63 11.17 22.47 11.74 21.33ZM9.92 25.41C11.21 25.44 12.5 25.39 13.78 25.37C14.32 25.37 14.95 25.44 15.47 25.26C15.28 25.56 15.09 25.86 14.91 26.17C14.37 27.1 13.86 28.05 13.38 29.01C12.42 28.9 11.41 29 10.43 29C9.84 29 9.25 28.98 8.66 28.97C9.04 27.77 9.46 26.58 9.92 25.41ZM7.4 33.69C8.62 33.65 9.96 33.7 11.15 33.45C11.34 33.41 11.38 33.08 11.16 33.04C10.01 32.86 8.73 32.97 7.55 33C7.82 31.86 8.12 30.73 8.46 29.61C9.18 29.6 9.89 29.57 10.61 29.54C11.47 29.51 12.37 29.51 13.22 29.34C11.99 31.87 10.98 34.52 10.22 37.23C9.07 37.11 7.86 37.18 6.73 37.41C6.91 36.16 7.13 34.92 7.4 33.69ZM6.66 37.92C7.82 37.68 8.95 37.59 10.13 37.59C10.06 37.84 9.99 38.09 9.93 38.34C9.79 38.88 9.53 39.7 9.3 40.57C8.78 40.58 8.26 40.63 7.75 40.67C7.29 40.7 6.81 40.7 6.35 40.76C6.43 39.81 6.53 38.86 6.66 37.92ZM2.29 42.6C3.33 43.09 4.38 43.58 5.42 44.07C5.76 44.23 6.19 44.07 6.2 43.65C6.22 42.86 6.26 42.07 6.32 41.28C6.81 41.26 7.31 41.17 7.8 41.12C8.26 41.07 8.73 41.04 9.2 40.96C8.88 42.23 8.66 43.57 8.98 44.36C6.95 44.43 4.88 44.53 2.87 44.75C2.67 44.04 2.48 43.32 2.29 42.6ZM3.04 45.39C5.12 45.29 7.22 45.06 9.29 44.8C9.83 45.31 10.8 45.45 11.65 45.54C10.94 46.25 10.25 46.97 9.58 47.71C7.73 47.72 5.87 47.85 4.03 47.95C3.9 47.95 3.82 48.03 3.77 48.12C3.52 47.21 3.28 46.3 3.04 45.39ZM4.01 48.57C5.72 48.46 7.44 48.37 9.15 48.19C8.4 49.04 7.67 49.92 6.97 50.82C6.15 50.75 5.3 50.72 4.47 50.74C4.28 50.01 4.08 49.28 3.88 48.55C3.92 48.57 3.96 48.57 4.01 48.57ZM4.63 51.34C5.3 51.31 5.96 51.28 6.63 51.26C6.13 51.92 5.63 52.59 5.15 53.28C4.98 52.63 4.8 51.99 4.63 51.34Z" />
	<path id="Shape 2 copy 3" class="shp0" d="M5.38 54.76C7.62 51.4 10.19 48.34 13.12 45.55C13.38 45.3 13.31 44.76 12.91 44.68C12.05 44.51 10.47 44.54 9.95 43.78C9.58 43.23 10.41 40.87 10.57 40.12C10.94 38.37 11.43 36.64 12.01 34.95C13.28 31.23 15.05 27.7 17.21 24.43C21.68 17.69 27.76 12.5 34.8 8.62C35.08 8.46 35.01 8.14 34.81 8C34.83 7.87 34.79 7.74 34.67 7.61C32.58 5.46 30.49 3.31 28.41 1.16C28.26 1.01 27.97 0.93 27.79 1.06C18.15 7.89 11.09 17.81 7.61 28.95C7.53 28.95 7.45 28.95 7.37 28.95C6.96 28.95 6.94 29.58 7.36 29.6C7.37 29.6 7.39 29.6 7.41 29.6C6.13 33.87 5.37 38.32 5.2 42.84C4.06 42.3 2.92 41.76 1.78 41.23C1.4 41.05 0.88 41.31 1.01 41.78L3.44 50.87C3.26 51.03 3.29 51.38 3.58 51.39L4.44 54.61C4.56 55.05 5.13 55.14 5.38 54.76ZM28.28 2.5C29.02 2.7 30.24 4.52 30.79 5.09C31.18 5.49 31.57 5.89 31.95 6.29C29.22 5.9 26.2 5.6 23.43 5.77C24.77 4.41 26.98 2.16 28.28 2.5ZM22.7 6.51C22.77 6.45 22.85 6.37 22.94 6.28C22.96 6.29 22.97 6.29 23 6.3C25.97 6.64 29.13 6.61 32.13 6.67C32.19 6.67 32.24 6.65 32.27 6.61C32.8 7.16 33.34 7.71 33.87 8.26C32.3 9.01 30.78 9.87 29.33 10.82C25.52 11.1 21.74 11.55 17.91 11.7C19.39 9.86 20.98 8.13 22.7 6.51ZM17.45 12.28C17.5 12.33 17.56 12.35 17.65 12.35C21.12 12.29 24.8 12.12 28.3 11.51C26.46 12.79 24.73 14.22 23.1 15.77C20.47 15.61 17.77 15.7 15.13 15.71C15.04 15.72 14.98 15.75 14.92 15.8C15.72 14.59 16.56 13.42 17.45 12.28ZM14.05 17.17C14.3 16.75 14.56 16.34 14.83 15.94C14.77 16.12 14.86 16.37 15.11 16.36C17.63 16.32 20.2 16.33 22.71 16.15C21.22 17.61 19.83 19.17 18.55 20.82C16.45 20.67 14.16 20.55 12.05 20.72C12.67 19.51 13.33 18.33 14.05 17.17ZM11.74 21.33C13.84 21.51 16.12 21.38 18.24 21.22C17.39 22.33 16.59 23.48 15.85 24.65C15.84 24.66 15.83 24.66 15.82 24.66C15.06 25.16 13.74 24.89 12.87 24.87C11.97 24.84 11.07 24.81 10.17 24.81C10.65 23.63 11.17 22.47 11.74 21.33ZM9.92 25.41C11.21 25.44 12.5 25.39 13.78 25.37C14.32 25.37 14.95 25.44 15.47 25.26C15.28 25.56 15.09 25.86 14.91 26.17C14.37 27.1 13.86 28.05 13.38 29.01C12.42 28.9 11.41 29 10.43 29C9.84 29 9.25 28.98 8.66 28.97C9.04 27.77 9.46 26.58 9.92 25.41ZM7.4 33.69C8.62 33.65 9.96 33.7 11.15 33.45C11.34 33.41 11.38 33.08 11.16 33.04C10.01 32.86 8.73 32.97 7.55 33C7.82 31.86 8.12 30.73 8.46 29.61C9.18 29.6 9.89 29.57 10.61 29.54C11.47 29.51 12.37 29.51 13.22 29.34C11.99 31.87 10.98 34.52 10.22 37.23C9.07 37.11 7.86 37.18 6.73 37.41C6.91 36.16 7.13 34.92 7.4 33.69ZM6.66 37.92C7.82 37.68 8.95 37.59 10.13 37.59C10.06 37.84 9.99 38.09 9.93 38.34C9.79 38.88 9.53 39.7 9.3 40.57C8.78 40.58 8.26 40.63 7.75 40.67C7.29 40.7 6.81 40.7 6.35 40.76C6.43 39.81 6.53 38.86 6.66 37.92ZM2.29 42.6C3.33 43.09 4.38 43.58 5.42 44.07C5.76 44.23 6.19 44.07 6.2 43.65C6.22 42.86 6.26 42.07 6.32 41.28C6.81 41.26 7.31 41.17 7.8 41.12C8.26 41.07 8.73 41.04 9.2 40.96C8.88 42.23 8.66 43.57 8.98 44.36C6.95 44.43 4.88 44.53 2.87 44.75C2.67 44.04 2.48 43.32 2.29 42.6ZM3.04 45.39C5.12 45.29 7.22 45.06 9.29 44.8C9.83 45.31 10.8 45.45 11.65 45.54C10.94 46.25 10.25 46.97 9.58 47.71C7.73 47.72 5.87 47.85 4.03 47.95C3.9 47.95 3.82 48.03 3.77 48.12C3.52 47.21 3.28 46.3 3.04 45.39ZM4.01 48.57C5.72 48.46 7.44 48.37 9.15 48.19C8.4 49.04 7.67 49.92 6.97 50.82C6.15 50.75 5.3 50.72 4.47 50.74C4.28 50.01 4.08 49.28 3.88 48.55C3.92 48.57 3.96 48.57 4.01 48.57ZM4.63 51.34C5.3 51.31 5.96 51.28 6.63 51.26C6.13 51.92 5.63 52.59 5.15 53.28C4.98 52.63 4.8 51.99 4.63 51.34Z" />
	<path id="Shape 2 copy" class="shp0" d="M156.62 54.76C154.38 51.4 151.81 48.34 148.88 45.55C148.62 45.3 148.69 44.76 149.09 44.68C149.95 44.51 151.53 44.54 152.05 43.78C152.42 43.23 151.59 40.87 151.43 40.12C151.06 38.37 150.57 36.64 149.99 34.95C148.72 31.23 146.95 27.7 144.79 24.43C140.32 17.69 134.24 12.5 127.2 8.62C126.92 8.46 126.99 8.14 127.19 8C127.17 7.87 127.21 7.74 127.33 7.61C129.42 5.46 131.51 3.31 133.59 1.16C133.74 1.01 134.03 0.93 134.21 1.06C143.85 7.89 150.91 17.81 154.39 28.95C154.47 28.95 154.55 28.95 154.63 28.95C155.04 28.95 155.06 29.58 154.64 29.6C154.63 29.6 154.61 29.6 154.59 29.6C155.87 33.87 156.63 38.32 156.8 42.84C157.94 42.3 159.08 41.76 160.22 41.23C160.6 41.05 161.12 41.31 160.99 41.78L158.56 50.87C158.74 51.03 158.71 51.38 158.42 51.39L157.56 54.61C157.44 55.05 156.87 55.14 156.62 54.76ZM133.72 2.5C132.98 2.7 131.76 4.52 131.21 5.09C130.82 5.49 130.43 5.89 130.05 6.29C132.78 5.9 135.8 5.6 138.57 5.77C137.23 4.41 135.02 2.16 133.72 2.5ZM139.3 6.51C139.23 6.45 139.15 6.37 139.06 6.28C139.04 6.29 139.03 6.29 139 6.3C136.03 6.64 132.87 6.61 129.87 6.67C129.81 6.67 129.76 6.65 129.73 6.61C129.2 7.16 128.66 7.71 128.13 8.26C129.7 9.01 131.22 9.87 132.67 10.82C136.48 11.1 140.26 11.55 144.09 11.7C142.61 9.86 141.02 8.13 139.3 6.51ZM144.55 12.28C144.5 12.33 144.44 12.35 144.35 12.35C140.88 12.29 137.2 12.12 133.7 11.51C135.54 12.79 137.27 14.22 138.9 15.77C141.53 15.61 144.23 15.7 146.87 15.71C146.96 15.72 147.02 15.75 147.08 15.8C146.28 14.59 145.44 13.42 144.55 12.28ZM147.95 17.17C147.7 16.75 147.44 16.34 147.17 15.94C147.23 16.12 147.14 16.37 146.89 16.36C144.37 16.32 141.8 16.33 139.29 16.15C140.78 17.61 142.17 19.17 143.45 20.82C145.55 20.67 147.84 20.55 149.95 20.72C149.33 19.51 148.67 18.33 147.95 17.17ZM150.26 21.33C148.16 21.51 145.88 21.38 143.76 21.22C144.61 22.33 145.41 23.48 146.15 24.65C146.16 24.66 146.17 24.66 146.18 24.66C146.94 25.16 148.26 24.89 149.13 24.87C150.03 24.84 150.93 24.81 151.83 24.81C151.35 23.63 150.83 22.47 150.26 21.33ZM152.08 25.41C150.79 25.44 149.5 25.39 148.22 25.37C147.68 25.37 147.05 25.44 146.53 25.26C146.72 25.56 146.91 25.86 147.09 26.17C147.63 27.1 148.14 28.05 148.62 29.01C149.58 28.9 150.59 29 151.57 29C152.16 29 152.75 28.98 153.34 28.97C152.96 27.77 152.54 26.58 152.08 25.41ZM154.6 33.69C153.38 33.65 152.04 33.7 150.85 33.45C150.66 33.41 150.62 33.08 150.84 33.04C151.99 32.86 153.27 32.97 154.45 33C154.18 31.86 153.88 30.73 153.54 29.61C152.82 29.6 152.11 29.57 151.39 29.54C150.53 29.51 149.63 29.51 148.78 29.34C150.01 31.87 151.02 34.52 151.78 37.23C152.93 37.11 154.14 37.18 155.27 37.41C155.09 36.16 154.87 34.92 154.6 33.69ZM155.34 37.92C154.18 37.68 153.05 37.59 151.87 37.59C151.94 37.84 152.01 38.09 152.07 38.34C152.21 38.88 152.47 39.7 152.7 40.57C153.22 40.58 153.74 40.63 154.25 40.67C154.71 40.7 155.19 40.7 155.65 40.76C155.57 39.81 155.47 38.86 155.34 37.92ZM159.71 42.6C158.67 43.09 157.62 43.58 156.58 44.07C156.24 44.23 155.81 44.07 155.8 43.65C155.78 42.86 155.74 42.07 155.68 41.28C155.19 41.26 154.69 41.17 154.2 41.12C153.74 41.07 153.27 41.04 152.8 40.96C153.12 42.23 153.34 43.57 153.02 44.36C155.05 44.43 157.12 44.53 159.13 44.75C159.33 44.04 159.52 43.32 159.71 42.6ZM158.96 45.39C156.88 45.29 154.78 45.06 152.71 44.8C152.17 45.31 151.2 45.45 150.35 45.54C151.06 46.25 151.75 46.97 152.42 47.71C154.27 47.72 156.13 47.85 157.97 47.95C158.1 47.95 158.18 48.03 158.23 48.12C158.48 47.21 158.72 46.3 158.96 45.39ZM157.99 48.57C156.28 48.46 154.56 48.37 152.85 48.19C153.6 49.04 154.33 49.92 155.03 50.82C155.85 50.75 156.7 50.72 157.53 50.74C157.72 50.01 157.92 49.28 158.12 48.55C158.08 48.57 158.04 48.57 157.99 48.57ZM157.37 51.34C156.7 51.31 156.04 51.28 155.37 51.26C155.87 51.92 156.37 52.59 156.85 53.28C157.02 52.63 157.2 51.99 157.37 51.34Z" />
	<path id="Shape 2 copy 2" class="shp0" d="M156.62 54.76C154.38 51.4 151.81 48.34 148.88 45.55C148.62 45.3 148.69 44.76 149.09 44.68C149.95 44.51 151.53 44.54 152.05 43.78C152.42 43.23 151.59 40.87 151.43 40.12C151.06 38.37 150.57 36.64 149.99 34.95C148.72 31.23 146.95 27.7 144.79 24.43C140.32 17.69 134.24 12.5 127.2 8.62C126.92 8.46 126.99 8.14 127.19 8C127.17 7.87 127.21 7.74 127.33 7.61C129.42 5.46 131.51 3.31 133.59 1.16C133.74 1.01 134.03 0.93 134.21 1.06C143.85 7.89 150.91 17.81 154.39 28.95C154.47 28.95 154.55 28.95 154.63 28.95C155.04 28.95 155.06 29.58 154.64 29.6C154.63 29.6 154.61 29.6 154.59 29.6C155.87 33.87 156.63 38.32 156.8 42.84C157.94 42.3 159.08 41.76 160.22 41.23C160.6 41.05 161.12 41.31 160.99 41.78L158.56 50.87C158.74 51.03 158.71 51.38 158.42 51.39L157.56 54.61C157.44 55.05 156.87 55.14 156.62 54.76ZM133.72 2.5C132.98 2.7 131.76 4.52 131.21 5.09C130.82 5.49 130.43 5.89 130.05 6.29C132.78 5.9 135.8 5.6 138.57 5.77C137.23 4.41 135.02 2.16 133.72 2.5ZM139.3 6.51C139.23 6.45 139.15 6.37 139.06 6.28C139.04 6.29 139.03 6.29 139 6.3C136.03 6.64 132.87 6.61 129.87 6.67C129.81 6.67 129.76 6.65 129.73 6.61C129.2 7.16 128.66 7.71 128.13 8.26C129.7 9.01 131.22 9.87 132.67 10.82C136.48 11.1 140.26 11.55 144.09 11.7C142.61 9.86 141.02 8.13 139.3 6.51ZM144.55 12.28C144.5 12.33 144.44 12.35 144.35 12.35C140.88 12.29 137.2 12.12 133.7 11.51C135.54 12.79 137.27 14.22 138.9 15.77C141.53 15.61 144.23 15.7 146.87 15.71C146.96 15.72 147.02 15.75 147.08 15.8C146.28 14.59 145.44 13.42 144.55 12.28ZM147.95 17.17C147.7 16.75 147.44 16.34 147.17 15.94C147.23 16.12 147.14 16.37 146.89 16.36C144.37 16.32 141.8 16.33 139.29 16.15C140.78 17.61 142.17 19.17 143.45 20.82C145.55 20.67 147.84 20.55 149.95 20.72C149.33 19.51 148.67 18.33 147.95 17.17ZM150.26 21.33C148.16 21.51 145.88 21.38 143.76 21.22C144.61 22.33 145.41 23.48 146.15 24.65C146.16 24.66 146.17 24.66 146.18 24.66C146.94 25.16 148.26 24.89 149.13 24.87C150.03 24.84 150.93 24.81 151.83 24.81C151.35 23.63 150.83 22.47 150.26 21.33ZM152.08 25.41C150.79 25.44 149.5 25.39 148.22 25.37C147.68 25.37 147.05 25.44 146.53 25.26C146.72 25.56 146.91 25.86 147.09 26.17C147.63 27.1 148.14 28.05 148.62 29.01C149.58 28.9 150.59 29 151.57 29C152.16 29 152.75 28.98 153.34 28.97C152.96 27.77 152.54 26.58 152.08 25.41ZM154.6 33.69C153.38 33.65 152.04 33.7 150.85 33.45C150.66 33.41 150.62 33.08 150.84 33.04C151.99 32.86 153.27 32.97 154.45 33C154.18 31.86 153.88 30.73 153.54 29.61C152.82 29.6 152.11 29.57 151.39 29.54C150.53 29.51 149.63 29.51 148.78 29.34C150.01 31.87 151.02 34.52 151.78 37.23C152.93 37.11 154.14 37.18 155.27 37.41C155.09 36.16 154.87 34.92 154.6 33.69ZM155.34 37.92C154.18 37.68 153.05 37.59 151.87 37.59C151.94 37.84 152.01 38.09 152.07 38.34C152.21 38.88 152.47 39.7 152.7 40.57C153.22 40.58 153.74 40.63 154.25 40.67C154.71 40.7 155.19 40.7 155.65 40.76C155.57 39.81 155.47 38.86 155.34 37.92ZM159.71 42.6C158.67 43.09 157.62 43.58 156.58 44.07C156.24 44.23 155.81 44.07 155.8 43.65C155.78 42.86 155.74 42.07 155.68 41.28C155.19 41.26 154.69 41.17 154.2 41.12C153.74 41.07 153.27 41.04 152.8 40.96C153.12 42.23 153.34 43.57 153.02 44.36C155.05 44.43 157.12 44.53 159.13 44.75C159.33 44.04 159.52 43.32 159.71 42.6ZM158.96 45.39C156.88 45.29 154.78 45.06 152.71 44.8C152.17 45.31 151.2 45.45 150.35 45.54C151.06 46.25 151.75 46.97 152.42 47.71C154.27 47.72 156.13 47.85 157.97 47.95C158.1 47.95 158.18 48.03 158.23 48.12C158.48 47.21 158.72 46.3 158.96 45.39ZM157.99 48.57C156.28 48.46 154.56 48.37 152.85 48.19C153.6 49.04 154.33 49.92 155.03 50.82C155.85 50.75 156.7 50.72 157.53 50.74C157.72 50.01 157.92 49.28 158.12 48.55C158.08 48.57 158.04 48.57 157.99 48.57ZM157.37 51.34C156.7 51.31 156.04 51.28 155.37 51.26C155.87 51.92 156.37 52.59 156.85 53.28C157.02 52.63 157.2 51.99 157.37 51.34Z" />
</svg>