<svg xmlns="http://www.w3.org/2000/svg" viewBox="0 0 53 26" width="53" height="26">
	<style>
		tspan { white-space:pre }
		.shp0 { fill: #e02c32 } 
	</style>
	<path id="Shape 4 copy 5" class="shp0" d="M0.81 10.44C9.07 7.96 17.07 4.84 24.83 1.08C25.57 0.72 26.77 1.42 26.35 2.34C25.55 4.11 24.88 5.87 24.32 7.7C28.93 7.03 33.54 6.36 38.14 5.69C40.73 5.32 43.32 4.94 45.91 4.57C47.11 4.39 49.47 3.52 50.69 3.94C52.09 4.43 52.11 4.68 52.47 6.15C53.27 9.31 53.12 15.07 52.29 18.23C52.2 18.58 51.87 18.88 51.53 18.95C47.27 19.84 42.05 18.63 37.74 18.32C32.76 17.96 27.75 17.66 22.79 17C24.04 19.16 25.3 21.31 26.55 23.47C27.13 24.48 25.93 25.32 25.05 24.89C21.9 23.34 18.76 21.77 15.63 20.19C15.32 20.33 14.91 20.12 14.79 19.76C10 17.34 5.24 14.89 0.5 12.39C-0.36 11.93 0 10.68 0.81 10.44ZM50.44 12.33C50.42 10.95 50.52 9.68 50.28 8.67C48.99 11.41 47.62 14.15 46.09 16.76C48.86 16.8 50.49 16.13 50.44 12.33ZM44.48 16.68C44.61 16.69 44.73 16.7 44.86 16.7C46.43 13.66 48.17 10.67 49.86 7.67C49.43 7.05 48.68 6.63 47.39 6.5C46.81 6.45 46.18 6.47 45.54 6.53C45.55 6.58 45.54 6.63 45.52 6.69C44.27 10.05 42.71 13.34 40.89 16.43C42.09 16.51 43.28 16.6 44.48 16.68ZM36.86 16.15C37.81 16.21 38.75 16.28 39.7 16.35C41.62 13.22 43.32 10.04 44.76 6.63C43.01 6.9 41.16 7.41 39.61 7.63C39.52 7.64 39.43 7.66 39.34 7.67C39.33 7.69 39.33 7.71 39.32 7.73C37.38 10.41 35.58 13.07 33.97 15.94C34.93 16.01 35.89 16.08 36.86 16.15ZM32.79 15.86C34.33 12.99 36.23 10.19 38.44 7.8C35.44 8.24 32.44 8.67 29.43 9.11C29.46 9.2 29.46 9.3 29.41 9.41C28.45 11.41 27.42 13.54 26.25 15.49C28.43 15.58 30.61 15.71 32.79 15.86ZM22.91 21.44C22.15 20.14 21.39 18.83 20.64 17.53C20.33 17 20.52 16.51 20.89 16.23C20.82 15.83 21.04 15.39 21.59 15.39C22.71 15.39 23.82 15.41 24.94 15.44C26.01 13.31 27.32 11.21 28.61 9.23C26.77 9.5 24.93 9.76 23.1 10.03C22.29 10.15 21.61 9.51 21.83 8.67C22.16 7.43 22.55 6.24 22.98 5.06C20.98 9.52 18.85 13.93 16.69 18.32C18.76 19.36 20.83 20.41 22.91 21.44ZM15.56 17.76C17.75 13.34 19.98 8.92 22.33 4.59C20.06 5.63 17.77 6.59 15.46 7.53C15.46 7.58 15.45 7.63 15.42 7.69C14.16 10.37 12.56 12.9 11.15 15.5C12.62 16.26 14.09 17.01 15.56 17.76ZM10.11 14.98C11.57 12.65 12.9 10.21 14.45 7.94C10.96 9.32 7.44 10.59 3.85 11.73C5.93 12.82 8.02 13.9 10.11 14.98Z" />
</svg>