<svg xmlns="http://www.w3.org/2000/svg" viewBox="0 0 187 186" width="187" height="186">
	<style>
		tspan { white-space:pre }
		.shp0 { fill: #ffff00 } 
	</style>
	<path id="Shape 5" class="shp0" d="M140.66 45.86C137.35 42.55 132.96 40.73 128.28 40.73C123.6 40.73 119.2 42.55 115.9 45.86C112.59 49.17 110.77 53.58 110.77 58.26C110.77 62.95 112.59 67.35 115.9 70.66C119.2 73.98 123.6 75.8 128.28 75.8L128.28 75.8C132.96 75.8 137.35 73.98 140.66 70.66C143.97 67.35 145.79 62.95 145.79 58.26C145.79 53.58 143.97 49.17 140.66 45.86ZM133.7 63.69C132.25 65.14 130.33 65.94 128.28 65.94L128.28 65.94C126.23 65.94 124.31 65.14 122.86 63.69C121.41 62.24 120.62 60.31 120.62 58.26C120.62 56.21 121.41 54.29 122.86 52.84C124.31 51.39 126.23 50.59 128.28 50.59C130.32 50.59 132.25 51.39 133.7 52.84C136.68 55.83 136.68 60.7 133.7 63.69ZM5.91 152.05C4.65 152.05 3.39 151.57 2.43 150.6C0.51 148.68 0.51 145.55 2.43 143.63L30.91 115.11C32.83 113.18 35.95 113.18 37.87 115.11C39.8 117.03 39.8 120.15 37.87 122.08L9.4 150.6C8.43 151.57 7.18 152.05 5.91 152.05ZM12.28 179.38C11.02 179.38 9.76 178.9 8.8 177.93C6.88 176.01 6.88 172.88 8.8 170.96L38.48 141.23C40.41 139.3 43.52 139.3 45.45 141.23C47.37 143.15 47.37 146.28 45.45 148.2L15.76 177.93C14.8 178.9 13.54 179.38 12.28 179.38ZM39.57 185.75C38.31 185.75 37.05 185.27 36.09 184.31C34.16 182.38 34.16 179.26 36.09 177.33L64.56 148.81C66.49 146.89 69.6 146.89 71.53 148.81C73.45 150.74 73.45 153.86 71.53 155.79L43.05 184.31C42.09 185.27 40.83 185.75 39.57 185.75ZM185 1.45C183.89 0.33 182.3 -0.18 180.74 0.07C180.17 0.16 166.52 2.41 147.91 9.53C137 13.7 126.63 18.7 117.1 24.39C105.39 31.37 94.91 39.42 85.93 48.31L48.73 55.56C47.77 55.75 46.89 56.22 46.2 56.91L12.5 90.55C10.97 92.08 10.61 94.44 11.63 96.36C12.49 97.99 14.18 98.98 15.98 98.98C16.29 98.98 16.6 98.95 16.92 98.89L54.93 91.48C52.45 96.34 50.14 101.39 47.99 106.62C47.23 108.46 47.66 110.57 49.06 111.98L58.37 121.31L49.72 129.97C47.8 131.9 47.8 135.02 49.72 136.95C50.68 137.91 51.94 138.39 53.2 138.39C54.46 138.39 55.73 137.91 56.69 136.95L65.34 128.28L74.65 137.61C75.59 138.55 76.85 139.05 78.13 139.05C78.76 139.05 79.4 138.93 80 138.68C85.23 136.53 90.26 134.21 95.12 131.73L87.72 169.8C87.31 171.93 88.33 174.08 90.24 175.1C90.97 175.49 91.77 175.68 92.55 175.68C93.83 175.68 95.09 175.18 96.04 174.22L129.63 140.48C130.32 139.78 130.79 138.9 130.98 137.94L138.21 100.69C147.09 91.69 155.13 81.19 162.1 69.46C167.78 59.91 172.77 49.53 176.94 38.6C184.05 19.97 186.29 6.3 186.38 5.72C186.63 4.16 186.12 2.57 185 1.45ZM30.9 86.11L52.09 64.96L74.88 60.51C69.94 66.61 65.35 73.18 61.14 80.21L30.9 86.11ZM121.59 134.58L100.48 155.79L106.36 125.51C113.39 121.29 119.95 116.7 126.03 111.75L121.59 134.58ZM167.65 35.32C161.43 51.56 149.97 74.97 130.67 94.3C121.78 103.2 111.44 111.11 99.76 117.96C99.55 118.06 99.34 118.18 99.15 118.31C92.9 121.95 86.27 125.27 79.27 128.29L72.3 121.31L86.37 107.22C88.29 105.29 88.29 102.17 86.37 100.24C84.45 98.32 81.33 98.32 79.4 100.24L65.34 114.33L58.37 107.35C61.38 100.34 64.7 93.7 68.33 87.43C68.46 87.24 68.57 87.04 68.68 86.83C75.52 75.13 83.41 64.77 92.3 55.87C111.6 36.54 134.98 25.06 151.19 18.83C161.05 15.05 169.53 12.69 175.14 11.33C173.78 16.95 171.43 25.45 167.65 35.32Z" />
</svg>